<svg xmlns="http://www.w3.org/2000/svg" viewBox="0 0 320 200" fill="none" stroke="currentColor" stroke-width="2" stroke-linecap="round" stroke-linejoin="round">
  <g font-family="sans-serif" font-size="9" fill="currentColor" stroke="none" text-anchor="middle">
    <text x="58" y="14">pálpebra inferior</text>
    <text x="160" y="14">boca e língua</text>
    <text x="264" y="14">mão</text>
  </g>
  <!-- A: olho com pálpebra tracionada -->
  <path d="M 20 56 C 34 40, 82 40, 96 56 C 82 72, 34 72, 20 56 Z" stroke-width="1.8" />
  <circle cx="58" cy="56" r="11" stroke-width="1.6" />
  <circle cx="58" cy="56" r="4" stroke-width="1.4" />
  <path d="M 24 66 C 36 84, 80 84, 92 66" stroke-width="1.8" />
  <path d="M 27 71 C 38 82, 78 82, 89 71" stroke-width="1.2" stroke-dasharray="4 3" />
  <path d="M 58 84 L 58 96" stroke-width="1.2" />
  <g font-family="sans-serif" font-size="8.5" fill="currentColor" stroke="none" text-anchor="middle">
    <text x="58" y="106">1 rima</text>
    <text x="58" y="117">2 face interna</text>
  </g>
  <!-- B: boca aberta, língua elevada -->
  <path d="M 124 46 C 142 34, 178 34, 196 46 C 180 78, 140 78, 124 46 Z" stroke-width="1.8" />
  <path d="M 132 45 C 146 40, 174 40, 188 45" stroke-width="1.2" />
  <path d="M 160 52 C 152 56, 150 66, 154 74" stroke-width="1.4" />
  <path d="M 160 52 C 168 56, 170 66, 166 74" stroke-width="1.4" />
  <path d="M 160 54 L 160 74" stroke-width="1.2" stroke-dasharray="3 3" />
  <path d="M 160 40 L 160 34" stroke-width="1.2" />
  <path d="M 160 78 L 160 96" stroke-width="1.2" />
  <g font-family="sans-serif" font-size="8.5" fill="currentColor" stroke="none" text-anchor="middle">
    <text x="160" y="28">3 palato duro</text>
    <text x="160" y="106">4 freio da língua</text>
  </g>
  <!-- C: mão, palma -->
  <path d="M 240 96 C 236 78, 238 62, 244 56 C 248 52, 252 54, 252 60 L 252 74" stroke-width="1.6" />
  <path d="M 252 74 L 252 44 C 252 39, 258 39, 258 44 L 258 74" stroke-width="1.6" />
  <path d="M 258 74 L 258 42 C 258 37, 264 37, 264 42 L 264 74" stroke-width="1.6" />
  <path d="M 264 74 L 264 46 C 264 41, 270 41, 270 46 L 270 76" stroke-width="1.6" />
  <path d="M 270 76 L 274 54 C 275 49, 281 50, 280 56 L 278 82" stroke-width="1.6" />
  <path d="M 240 96 C 246 108, 274 108, 278 82" stroke-width="1.6" />
  <g stroke-width="1.2">
    <path d="M 246 82 C 254 76, 264 76, 272 80" />
    <path d="M 246 90 C 256 84, 266 84, 274 88" />
  </g>
  <g stroke-width="1.2">
    <path d="M 252 44 C 254 42, 257 42, 258 44" />
    <path d="M 258 42 C 260 40, 263 40, 264 42" />
  </g>
  <g font-family="sans-serif" font-size="8.5" fill="currentColor" stroke="none" text-anchor="middle">
    <text x="262" y="122">5 pregas palmares</text>
  </g>
  <g font-family="sans-serif" font-size="9" fill="currentColor" stroke="none">
    <text x="14" y="150">Palidez: 1 rima conjuntival (maior rendimento), 5 pregas palmares.</text>
    <text x="14" y="166">Icterícia: 1 esclera e conjuntiva, 4 freio da língua, 3 palato duro.</text>
    <text x="14" y="182">Em pele escura, palma e planta substituem a pele na busca de palidez.</text>
  </g>
</svg>
