<svg xmlns="http://www.w3.org/2000/svg" viewBox="0 0 320 200" fill="none" stroke="currentColor" stroke-width="2" stroke-linecap="round" stroke-linejoin="round">
  <!-- som traqueal -->
  <path d="M 114 64 L 228 64" stroke-width="1.2" />
  <path d="M 118 64 L 132 38 L 146 64" stroke-width="2" />
  <path d="M 160 64 L 182 28 L 204 64" stroke-width="2" />
  <g stroke-width="1.2" stroke-dasharray="3 3">
    <path d="M 146 64 L 146 78" />
    <path d="M 160 64 L 160 78" />
  </g>
  <g font-family="sans-serif" font-size="9" fill="currentColor" stroke="none" text-anchor="middle">
    <text x="153" y="88">pausa</text>
    <text x="132" y="76">i</text>
    <text x="182" y="76">e</text>
  </g>
  <!-- broncovesicular -->
  <path d="M 114 120 L 228 120" stroke-width="1.2" />
  <path d="M 118 120 L 134 100 L 150 120" stroke-width="2" />
  <path d="M 150 120 L 166 100 L 182 120" stroke-width="2" />
  <!-- murmúrio vesicular -->
  <path d="M 114 176 L 228 176" stroke-width="1.2" />
  <path d="M 118 176 L 140 148 L 162 176" stroke-width="2" />
  <path d="M 162 176 L 174 162 L 186 176" stroke-width="2" />
  <!-- rótulos -->
  <g font-family="sans-serif" font-size="9.5" fill="currentColor" stroke="none" text-anchor="end">
    <text x="106" y="46">som traqueal</text>
    <text x="106" y="102">broncovesicular</text>
    <text x="106" y="158">murmúrio vesicular</text>
  </g>
  <g font-family="sans-serif" font-size="8" fill="currentColor" stroke="none" text-anchor="end">
    <text x="106" y="58">traqueia e fúrcula</text>
    <text x="106" y="114">esternal superior e</text>
    <text x="106" y="125">interescapulovertebral dir.</text>
    <text x="106" y="170">periferia dos pulmões</text>
  </g>
  <!-- notas à direita -->
  <g font-family="sans-serif" font-size="8.5" fill="currentColor" stroke="none">
    <text x="236" y="46">expiração mais</text>
    <text x="236" y="57">longa e rude</text>
    <text x="236" y="105">fases iguais,</text>
    <text x="236" y="116">sem pausa</text>
    <text x="236" y="161">inspiração longa,</text>
    <text x="236" y="172">expiração breve</text>
  </g>
</svg>
