<svg xmlns="http://www.w3.org/2000/svg" width="1080" height="1350" viewBox="0 0 1080 1350">
  <defs>
    
    <filter id="papel" x="0" y="0" width="100%" height="100%">
      <feTurbulence type="fractalNoise" baseFrequency="0.9" numOctaves="3" seed="3" result="n"/>
      <feColorMatrix in="n" type="matrix" values="0 0 0 0 0.5  0 0 0 0 0.5  0 0 0 0 0.5  0 0 0 0.10 0" result="grao"/>
      <feBlend in="SourceGraphic" in2="grao" mode="screen"/>
    </filter>
    <filter id="lapis" x="-10%" y="-10%" width="120%" height="120%">
      <feTurbulence type="fractalNoise" baseFrequency="0.035" numOctaves="2" seed="11" result="t"/>
      <feDisplacementMap in="SourceGraphic" in2="t" scale="2.20" xChannelSelector="R" yChannelSelector="G" result="d"/>
      <feTurbulence type="fractalNoise" baseFrequency="1.4" numOctaves="1" seed="5" result="g"/>
      <feColorMatrix in="g" type="matrix" values="0 0 0 0 0  0 0 0 0 0  0 0 0 0 0  0 0 0 0.55 0.45" result="ga"/>
      <feComposite in="d" in2="ga" operator="in"/>
    </filter>
    <radialGradient id="vinheta" cx="50%" cy="45%" r="75%">
      <stop offset="0" stop-color="#000000" stop-opacity="0"/>
      <stop offset="1" stop-color="#000000" stop-opacity="0.55"/>
    </radialGradient>
  </defs>
  <rect width="1080" height="1350" fill="#111111"/>
  <rect width="1080" height="1350" fill="#111111" filter="url(#papel)"/>
  <rect width="1080" height="1350" fill="url(#vinheta)"/>
  <g filter="url(#lapis)">
<circle cx="664.8" cy="930.0" r="122.5" fill="none" stroke="#A8A39A" stroke-width="0.70" stroke-opacity="0.26" stroke-dasharray="4 7"/>
<path d="M 526.4 930.0 L 803.2 930.0" fill="none" stroke="#A8A39A" stroke-width="0.70" stroke-opacity="0.26" stroke-linecap="round" stroke-linejoin="round" />
<path d="M 664.8 791.6 L 664.8 1068.4" fill="none" stroke="#A8A39A" stroke-width="0.70" stroke-opacity="0.26" stroke-linecap="round" stroke-linejoin="round" />
<path d="M 686.8 930.0 L 687.0 930.9 L 687.1 931.8 L 687.1 932.7 L 687.2 933.6 L 687.2 934.6 L 687.1 935.5 L 687.1 936.5 L 687.0 937.4 L 686.8 938.3 L 686.6 939.3 L 686.4 940.2 L 686.1 941.2 L 685.8 942.1 L 685.4 943.0 L 685.0 943.9 L 684.5 944.8 L 684.1 945.7 L 683.5 946.6 L 683.0 947.5 L 682.4 948.3 L 681.7 949.1 L 681.1 949.9 L 680.3 950.7 L 679.6 951.5 L 678.8 952.2 L 678.0 952.9 L 677.1 953.5 L 676.3 954.2 L 675.3 954.8 L 674.4 955.3 L 673.4 955.9 L 672.4 956.3 L 671.4 956.8 L 670.3 957.2 L 669.3 957.6 L 668.2 957.9 L 667.1 958.2 L 665.9 958.4 L 664.8 958.6 L 663.6 958.7 L 662.5 958.8 L 661.3 958.9 L 660.1 958.9 L 658.9 958.8 L 657.7 958.8 L 656.5 958.6 L 655.3 958.4 L 654.1 958.2 L 652.9 957.9 L 651.7 957.5 L 650.5 957.1 L 649.4 956.7 L 648.2 956.2 L 647.1 955.6 L 646.0 955.0 L 644.9 954.4 L 643.8 953.7 L 642.7 952.9 L 641.7 952.1 L 640.7 951.3 L 639.7 950.4 L 638.8 949.5 L 637.9 948.5 L 637.0 947.5 L 636.2 946.5 L 635.4 945.4 L 634.7 944.3 L 634.0 943.1 L 633.3 941.9 L 632.7 940.7 L 632.1 939.4 L 631.6 938.1 L 631.1 936.8 L 630.7 935.5 L 630.4 934.1 L 630.0 932.8 L 629.8 931.4 L 629.6 930.0 L 629.5 928.5 L 629.4 927.1 L 629.4 925.6 L 629.4 924.2 L 629.5 922.7 L 629.6 921.3 L 629.9 919.8 L 630.1 918.4 L 630.5 916.9 L 630.9 915.5 L 631.3 914.1 L 631.9 912.6 L 632.4 911.2 L 633.1 909.9 L 633.8 908.5 L 634.5 907.2 L 635.3 905.9 L 636.2 904.6 L 637.1 903.3 L 638.1 902.1 L 639.1 900.9 L 640.2 899.8 L 641.4 898.7 L 642.5 897.6 L 643.8 896.6 L 645.1 895.7 L 646.4 894.7 L 647.7 893.9 L 649.1 893.1 L 650.6 892.3 L 652.1 891.6 L 653.6 891.0 L 655.1 890.4 L 656.7 889.9 L 658.3 889.4 L 659.9 889.0 L 661.5 888.7 L 663.2 888.4 L 664.9 888.2 L 666.6 888.1 L 668.3 888.0 L 670.0 888.0 L 671.7 888.1 L 673.4 888.2 L 675.1 888.4 L 676.8 888.7 L 678.6 889.1 L 680.2 889.5 L 681.9 890.0 L 683.6 890.6 L 685.3 891.2 L 686.9 891.9 L 688.5 892.7 L 690.1 893.6 L 691.6 894.5 L 693.1 895.4 L 694.6 896.5 L 696.1 897.6 L 697.5 898.8 L 698.8 900.0 L 700.1 901.3 L 701.4 902.6 L 702.6 904.0 L 703.8 905.5 L 704.9 907.0 L 705.9 908.5 L 706.9 910.1 L 707.8 911.8 L 708.7 913.5 L 709.5 915.2 L 710.2 917.0 L 710.8 918.8 L 711.4 920.6 L 711.9 922.5 L 712.4 924.3 L 712.7 926.3 L 713.0 928.2 L 713.2 930.1 L 713.3 932.1 L 713.4 934.0 L 713.3 936.0 L 713.2 938.0 L 713.0 940.0 L 712.8 942.0 L 712.4 943.9 L 712.0 945.9 L 711.4 947.8 L 710.8 949.8 L 710.2 951.7 L 709.4 953.6 L 708.6 955.4 L 707.6 957.3 L 706.7 959.1 L 705.6 960.8 L 704.4 962.5 L 703.2 964.2 L 701.9 965.9 L 700.6 967.5 L 699.1 969.0 L 697.7 970.5 L 696.1 971.9 L 694.5 973.3 L 692.8 974.6 L 691.1 975.8 L 689.3 977.0 L 687.4 978.1 L 685.6 979.1 L 683.6 980.1 L 681.6 980.9 L 679.6 981.7 L 677.6 982.5 L 675.5 983.1 L 673.4 983.7 L 671.2 984.1 L 669.0 984.5 L 666.8 984.8 L 664.6 985.0 L 662.4 985.1 L 660.2 985.2 L 657.9 985.1 L 655.7 984.9 L 653.4 984.7 L 651.2 984.4 L 649.0 983.9 L 646.8 983.4 L 644.6 982.8 L 642.4 982.1 L 640.2 981.3 L 638.1 980.4 L 636.0 979.5 L 634.0 978.4 L 631.9 977.3 L 630.0 976.0 L 628.0 974.7 L 626.1 973.3 L 624.3 971.9 L 622.5 970.3 L 620.8 968.7 L 619.2 967.0 L 617.6 965.2 L 616.1 963.4 L 614.6 961.5 L 613.2 959.5 L 611.9 957.5 L 610.7 955.4 L 609.6 953.3 L 608.5 951.1 L 607.6 948.9 L 606.7 946.6 L 605.9 944.3 L 605.2 941.9 L 604.6 939.6 L 604.1 937.1 L 603.7 934.7 L 603.4 932.2 L 603.2 929.8 L 603.1 927.3 L 603.1 924.8 L 603.2 922.3 L 603.4 919.8 L 603.6 917.3 L 604.0 914.8 L 604.5 912.3 L 605.1 909.8 L 605.9 907.4 L 606.7 905.0 L 607.6 902.6 L 608.6 900.2 L 609.7 897.9 L 610.9 895.6 L 612.1 893.3 L 613.5 891.2 L 615.0 889.0 L 616.6 886.9 L 618.2 884.9 L 620.0 882.9 L 621.8 881.0 L 623.7 879.2 L 625.7 877.5 L 627.7 875.8 L 629.8 874.2 L 632.0 872.7 L 634.3 871.3 L 636.6 869.9 L 639.0 868.7 L 641.4 867.5 L 643.9 866.5 L 646.4 865.5 L 649.0 864.7 L 651.6 863.9 L 654.3 863.3 L 656.9 862.7 L 659.6 862.3 L 662.4 862.0 L 665.1 861.8 L 667.9 861.7 L 670.6 861.7 L 673.4 861.8 L 676.2 862.0 L 678.9 862.4 L 681.7 862.9 L 684.4 863.4 L 687.1 864.1 L 689.8 864.9 L 692.5 865.8 L 695.1 866.8 L 697.7 867.9 L 700.3 869.2 L 702.8 870.5 L 705.3 872.0 L 707.7 873.5 L 710.0 875.1 L 712.3 876.9 L 714.5 878.7 L 716.7 880.6 L 718.7 882.7 L 720.7 884.8 L 722.7 887.0 L 724.5 889.2 L 726.2 891.6 L 727.9 894.0 L 729.4 896.5 L 730.9 899.0 L 732.2 901.7 L 733.5 904.3 L 734.6 907.1 L 735.6 909.9 L 736.5 912.7 L 737.4 915.6 L 738.0 918.5 L 738.6 921.4 L 739.1 924.4 L 739.4 927.4 L 739.6 930.4 L 739.7 933.4 L 739.7 936.4 L 739.5 939.5 L 739.3 942.5 L 738.9 945.5 L 738.3 948.5 L 737.7 951.5 L 736.9 954.5 L 736.0 957.4 L 735.0 960.4 L 733.9 963.2 L 732.7 966.1 L 731.3 968.9 L 729.8 971.6 L 728.2 974.3 L 726.5 976.9 L 724.7 979.5 L 722.8 981.9 L 720.8 984.4 L 718.7 986.7 L 716.5 988.9 L 714.1 991.1 L 711.7 993.2 L 709.3 995.2 L 706.7 997.0 L 704.0 998.8 L 701.3 1000.5 L 698.5 1002.1 L 695.6 1003.5 L 692.7 1004.9 L 689.7 1006.1 L 686.7 1007.2 L 683.6 1008.2 L 680.5 1009.0 L 677.3 1009.8 L 674.1 1010.4 L 670.9 1010.9 L 667.6 1011.2 L 664.3 1011.4 L 661.1 1011.5 L 657.8 1011.5 L 654.5 1011.3 L 651.2 1011.0 L 647.9 1010.5 L 644.6 1009.9 L 641.4 1009.2 L 638.1 1008.4 L 634.9 1007.4 L 631.8 1006.3 L 628.7 1005.0 L 625.6 1003.7 L 622.6 1002.2 L 619.6 1000.6 L 616.7 998.8 L 613.9 997.0 L 611.1 995.0 L 608.4 992.9 L 605.8 990.7 L 603.3 988.4 L 600.9 986.0 L 598.5 983.5 L 596.3 980.8 L 594.2 978.1 L 592.1 975.3 L 590.2 972.5 L 588.4 969.5 L 586.7 966.5 L 585.2 963.4 L 583.7 960.2 L 582.4 956.9 L 581.2 953.6 L 580.2 950.3 L 579.3 946.9 L 578.5 943.5 L 577.9 940.0 L 577.4 936.5 L 577.0 933.0 L 576.8 929.4 L 576.7 925.9 L 576.8 922.3 L 577.0 918.8 L 577.3 915.2 L 577.8 911.7 L 578.5 908.1 L 579.3 904.6 L 580.2 901.2 L 581.3 897.7 L 582.5 894.3 L 583.8 890.9 L 585.3 887.6 L 587.0 884.4 L 588.7 881.2 L 590.6 878.1 L 592.6 875.0 L 594.8 872.0 L 597.0 869.2 L 599.4 866.4 L 601.9 863.7 L 604.5 861.0 L 607.2 858.5 L 610.1 856.1 L 613.0 853.9 L 616.0 851.7 L 619.1 849.6 L 622.3 847.7 L 625.6 845.9 L 629.0 844.3 L 632.4 842.7 L 635.9 841.3 L 639.4 840.1 L 643.0 839.0 L 646.7 838.0 L 650.4 837.2 L 654.1 836.5 L 657.9 836.0 L 661.6 835.6 L 665.5 835.4 L 669.3 835.3 L 673.1 835.4 L 676.9 835.6 L 680.7 836.0 L 684.6 836.6 L 688.3 837.3 L 692.1 838.2 L 695.8 839.2 L 699.5 840.3 L 703.2 841.7 L 706.8 843.1 L 710.3 844.7 L 713.8 846.5 L 717.2 848.4 L 720.6 850.4 L 723.8 852.6 L 727.0 854.9 L 730.1 857.4 L 733.1 859.9 L 736.0 862.6 L 738.8 865.4 L 741.4 868.4 L 744.0 871.4 L 746.4 874.5 L 748.7 877.8 L 750.9 881.1 L 753.0 884.5 L 754.9 888.1 L 756.7 891.7 L 758.3 895.3 L 759.8 899.1 L 761.1 902.9 L 762.3 906.7 L 763.3 910.7 L 764.2 914.6 L 764.9 918.6 L 765.4 922.6 L 765.8 926.7 L 766.0 930.8 L 766.1 934.8 L 766.0 938.9 L 765.7 943.0 L 765.3 947.1 L 764.7 951.2 L 763.9 955.2 L 763.0 959.2 L 761.9 963.2 L 760.6 967.2 L 759.2 971.1 L 757.6 974.9 L 755.9 978.7 L 754.0 982.4 L 751.9 986.1 L 749.7 989.6 L 747.4 993.1 L 744.9 996.5 L 742.3 999.8 L 739.6 1002.9 L 736.7 1006.0 L 733.7 1009.0 L 730.5 1011.8 L 727.3 1014.5 L 723.9 1017.1 L 720.5 1019.6 L 716.9 1021.9 L 713.2 1024.1 L 709.5 1026.1 L 705.6 1028.0 L 701.7 1029.7 L 697.7 1031.3" fill="none" stroke="#E8E4DC" stroke-width="1.70" stroke-opacity="0.85" stroke-linecap="round" stroke-linejoin="round" />
<path d="M 686.8 930.4 L 686.6 929.6 L 686.4 930.4 L 687.2 934.6 L 686.5 932.8 L 687.9 935.1 L 687.3 934.2 L 687.0 937.4 L 685.1 936.8 L 684.1 936.5 L 684.0 939.0 L 684.6 940.6 L 686.3 940.9 L 682.2 941.4 L 685.3 943.2 L 682.9 943.3 L 683.2 943.7 L 685.6 944.6 L 683.5 947.9 L 682.2 947.3 L 682.5 948.4 L 680.0 949.2 L 683.0 947.8 L 681.6 950.9 L 678.7 954.3 L 679.9 950.5 L 678.1 953.7 L 676.9 954.5 L 676.2 955.1 L 677.4 953.8 L 674.7 954.7 L 673.6 954.2 L 671.6 956.1 L 672.6 958.4 L 668.5 956.1 L 670.2 954.8 L 667.5 957.8 L 668.8 959.1 L 665.5 957.9 L 664.4 960.7 L 663.0 958.3 L 662.9 958.7 L 661.0 957.3 L 660.1 958.3 L 660.5 959.8 L 657.7 959.7 L 656.0 960.1 L 655.3 959.2 L 652.3 958.6 L 650.5 955.0 L 651.3 956.3 L 650.8 960.3 L 648.2 955.8 L 648.5 956.9 L 646.8 955.3 L 647.0 955.7 L 643.4 954.3 L 643.8 952.2 L 643.1 951.7 L 643.1 952.4 L 640.8 950.5 L 639.6 947.6 L 637.2 950.0 L 634.9 949.7 L 634.6 948.6 L 635.0 947.6 L 635.6 943.2 L 636.4 946.3 L 633.9 942.7 L 633.1 940.5 L 634.2 939.9 L 632.0 938.3 L 630.7 936.4 L 632.9 936.6 L 632.1 935.5 L 629.4 933.7 L 629.3 932.8 L 629.3 930.9 L 627.7 928.8 L 631.8 927.6 L 627.9 927.6 L 631.3 923.6 L 629.1 923.3 L 627.0 923.8 L 629.6 921.4 L 628.8 920.5 L 629.4 918.2 L 628.9 915.2 L 632.7 914.8 L 631.7 914.0 L 631.2 911.9 L 633.3 910.8 L 632.9 909.9 L 635.4 909.5 L 635.1 906.4 L 633.4 907.2 L 637.6 904.4 L 637.9 904.4 L 639.3 903.4 L 638.5 903.1 L 638.5 901.0 L 642.1 899.9 L 645.2 899.7 L 642.2 894.3 L 646.2 894.2 L 646.4 895.9 L 645.4 890.9 L 649.5 893.1 L 650.2 892.4 L 650.9 889.5 L 653.3 889.6 L 652.8 891.1 L 656.6 890.4 L 656.9 888.5 L 658.5 887.8 L 661.8 887.6 L 663.7 888.9 L 667.7 886.2 L 667.8 887.9 L 668.3 886.0 L 669.3 889.0 L 671.6 888.2 L 673.0 889.8 L 675.1 885.4 L 675.9 886.0 L 674.0 888.3 L 682.1 889.6 L 680.3 888.7 L 685.2 890.8 L 685.3 891.1 L 686.9 893.1 L 689.3 893.0 L 688.6 894.3 L 690.7 896.0 L 691.4 895.3 L 694.6 894.6 L 698.5 899.6 L 696.8 899.8 L 699.4 896.3 L 700.5 901.2 L 701.5 901.1 L 702.2 903.8 L 705.4 906.0 L 704.9 909.1 L 705.1 908.0 L 704.4 912.3 L 709.2 913.1 L 709.6 913.6 L 709.8 914.9 L 709.9 917.0 L 713.0 919.5 L 711.3 919.8 L 711.0 924.7 L 713.1 924.4 L 712.2 924.7 L 712.9 929.4 L 712.7 929.8 L 713.0 932.2 L 711.2 933.7 L 712.2 937.3 L 712.2 938.8 L 715.2 939.5 L 711.9 942.2 L 712.4 942.5 L 712.6 948.7 L 711.1 947.5 L 709.4 950.2 L 708.4 950.1 L 711.2 952.3 L 710.1 957.6 L 708.0 958.0 L 709.4 958.8 L 704.8 958.9 L 704.5 964.6 L 704.6 962.9 L 700.7 965.2 L 701.0 967.2 L 699.4 969.4 L 697.2 970.4 L 696.4 971.8 L 695.2 975.9 L 693.6 974.7 L 688.7 976.4 L 686.6 975.0 L 688.6 979.1 L 685.3 976.7 L 683.1 979.1 L 682.5 984.1 L 679.9 980.7 L 675.9 982.4 L 675.2 981.5 L 673.5 982.0 L 672.8 985.6 L 670.5 983.8 L 667.6 984.6 L 664.1 984.5 L 660.6 983.1 L 661.3 984.9 L 658.2 986.5 L 653.3 983.8 L 653.7 985.2 L 650.7 985.8 L 649.3 982.2 L 645.5 984.5 L 645.2 980.1 L 644.3 982.9 L 642.1 980.8 L 637.7 978.8 L 639.6 979.2 L 636.2 977.5 L 632.2 974.9 L 629.4 977.4 L 626.3 976.2 L 626.6 971.9 L 623.6 971.2 L 622.5 969.6 L 619.7 968.3 L 617.7 965.2 L 617.5 966.5 L 613.9 963.4 L 613.7 960.1 L 614.4 958.8 L 614.0 956.4 L 611.3 955.1 L 608.5 954.1 L 608.3 951.9 L 607.5 947.4 L 606.6 946.7 L 607.2 943.0 L 605.2 939.5 L 605.5 938.0 L 601.6 937.1 L 605.3 932.6 L 601.9 931.2 L 601.6 930.3 L 601.9 926.3 L 603.9 923.7 L 603.8 920.9 L 601.7 917.2 L 606.3 916.8 L 604.4 914.7 L 604.8 912.4 L 607.8 908.4 L 603.7 906.0 L 604.8 906.0 L 608.7 901.2 L 606.6 899.7 L 611.6 893.9 L 611.6 894.1 L 613.6 891.8 L 613.1 889.0 L 613.6 890.9 L 617.7 886.4 L 617.0 882.2 L 619.4 882.9 L 621.7 880.9 L 622.1 879.1 L 625.6 879.3 L 630.3 875.6 L 628.8 874.1 L 631.2 871.6 L 634.2 869.8 L 637.5 869.8 L 639.3 868.4 L 640.4 866.2 L 643.6 865.7 L 646.8 865.5 L 647.1 864.8 L 649.7 863.1 L 653.8 860.4 L 657.1 863.0 L 659.4 861.7 L 661.8 860.6 L 664.7 861.0 L 668.0 860.0 L 670.9 861.9 L 673.2 861.2 L 676.9 859.7 L 679.6 862.7 L 682.1 863.4 L 683.5 863.1 L 688.0 864.7 L 690.1 862.8 L 693.2 867.4 L 696.5 867.2 L 695.6 869.3 L 700.1 865.6 L 703.3 868.4 L 703.5 871.1 L 709.5 873.0 L 710.4 877.6 L 714.5 876.7 L 714.2 876.9 L 715.7 881.2 L 719.3 882.8 L 722.1 883.7 L 722.6 888.0 L 725.3 890.7 L 726.8 891.1 L 728.4 892.6 L 727.1 897.3 L 730.8 899.5 L 729.8 901.2 L 732.6 903.1 L 731.4 906.6 L 736.9 910.4 L 735.7 912.7 L 738.4 911.7 L 737.9 919.2 L 739.6 923.8 L 740.7 924.8 L 739.8 928.5 L 738.9 930.3 L 741.0 936.1 L 739.5 936.4 L 739.8 941.3 L 739.2 944.5 L 737.5 945.3 L 738.1 949.6 L 739.2 949.4 L 735.6 955.0 L 735.1 955.3 L 736.5 961.0 L 734.6 962.6 L 734.1 965.7 L 732.8 967.6 L 728.6 971.9 L 727.3 975.2 L 726.9 975.6 L 724.8 979.0 L 724.1 981.1 L 720.2 986.1 L 721.8 989.5 L 716.5 989.3 L 716.3 990.9 L 710.4 993.3 L 709.9 994.0 L 704.4 995.0 L 705.0 997.8 L 701.1 1000.8 L 699.4 1001.6 L 696.3 1002.3 L 692.2 1003.4 L 691.3 1006.1 L 685.7 1006.7 L 683.3 1009.2 L 678.2 1007.6 L 676.8 1013.3 L 675.4 1010.2 L 671.9 1013.7 L 667.3 1010.7 L 666.0 1012.1 L 662.0 1010.8 L 660.5 1013.9 L 655.3 1012.2 L 648.3 1011.9 L 647.6 1011.1 L 645.6 1009.5 L 639.0 1009.7 L 637.1 1007.9 L 634.1 1006.9 L 628.5 1008.0 L 629.0 1006.6 L 628.4 1003.7 L 620.0 1000.9 L 617.9 999.9 L 616.8 996.0 L 614.3 994.8 L 611.5 994.8 L 608.0 992.8 L 605.0 989.8 L 600.9 988.3 L 603.4 988.7 L 600.4 984.4 L 595.3 982.9 L 594.1 978.0 L 591.7 975.5 L 589.6 972.3 L 586.9 969.0 L 589.9 966.4 L 584.8 964.1 L 584.7 958.6 L 582.1 958.2 L 581.6 953.8 L 582.4 949.4 L 579.4 946.2 L 580.6 940.7 L 576.9 939.3 L 578.3 937.4 L 578.9 930.8 L 577.8 929.0 L 575.8 926.6 L 575.5 919.4 L 576.5 916.7 L 576.4 915.7 L 578.3 913.9 L 578.2 906.0 L 578.2 903.3 L 578.5 901.8 L 580.4 894.9 L 583.5 894.1 L 584.3 891.1 L 586.2 887.7 L 588.7 885.0 L 589.3 881.8 L 588.6 877.8 L 592.3 875.3 L 592.9 874.3 L 597.2 867.5 L 597.0 866.0 L 601.8 862.6 L 604.7 860.2 L 608.0 857.5 L 610.0 857.5 L 616.6 852.5 L 615.4 850.5 L 620.2 848.0 L 621.6 847.7 L 624.2 844.6 L 628.3 841.3 L 630.4 842.1 L 636.1 841.1 L 636.9 839.4 L 644.1 839.7 L 646.6 836.7 L 651.2 836.4 L 652.5 835.4 L 659.9 836.3 L 663.3 834.9 L 666.8 834.5 L 669.1 838.8 L 674.2 834.7 L 676.8 836.1 L 682.4 835.4 L 682.1 836.2 L 688.4 837.5 L 693.9 838.6 L 697.0 837.6 L 700.7 843.3 L 704.3 842.0 L 707.0 845.6 L 709.0 844.6 L 714.5 847.5 L 716.6 848.8 L 720.2 850.6 L 723.6 851.0 L 727.0 856.1 L 728.7 857.0 L 734.0 858.4 L 736.2 861.1 L 740.4 868.7 L 744.3 868.0 L 745.0 871.6 L 746.6 876.7 L 746.9 879.3 L 750.9 883.1 L 753.2 883.6 L 755.3 889.1 L 756.7 892.3 L 757.6 892.3 L 761.0 900.1 L 761.3 903.0 L 763.7 906.1 L 762.3 910.4 L 765.8 912.7 L 766.5 917.7 L 763.9 924.4 L 765.7 924.9 L 765.5 932.1 L 767.8 934.3 L 766.5 939.9 L 764.8 943.5 L 765.2 946.4 L 764.0 951.3 L 763.9 954.4 L 762.4 960.8 L 762.2 964.5 L 762.3 968.0 L 762.4 969.9 L 758.7 974.5 L 758.5 981.1 L 751.2 981.1 L 752.9 987.2 L 750.8 989.5 L 748.0 994.0 L 744.8 997.9 L 739.1 1000.6 L 738.1 1004.3 L 736.4 1004.8 L 734.2 1007.7 L 729.3 1009.6 L 727.2 1015.2 L 725.4 1016.9 L 721.9 1019.6 L 716.8 1022.7 L 714.7 1023.6 L 709.1 1025.9 L 705.7 1026.7 L 703.1 1029.1 L 698.4 1030.1" fill="none" stroke="#E8E4DC" stroke-width="0.70" stroke-opacity="0.35" stroke-linecap="round" stroke-linejoin="round" />
<path d="M 673.7 953.5 L 667.4 936.8" fill="none" stroke="#E8E4DC" stroke-width="0.70" stroke-opacity="0.2251172330370358" stroke-linecap="round" stroke-linejoin="round" />
<path d="M 664.8 956.6 L 664.8 938.8" fill="none" stroke="#E8E4DC" stroke-width="0.70" stroke-opacity="0.1861090627736972" stroke-linecap="round" stroke-linejoin="round" />
<path d="M 654.8 956.3 L 661.1 939.7" fill="none" stroke="#E8E4DC" stroke-width="0.70" stroke-opacity="0.19751127537170313" stroke-linecap="round" stroke-linejoin="round" />
<path d="M 645.1 952.2 L 656.9 938.9" fill="none" stroke="#E8E4DC" stroke-width="0.70" stroke-opacity="0.2041950601995912" stroke-linecap="round" stroke-linejoin="round" />
<path d="M 637.2 944.5 L 653.0 936.2" fill="none" stroke="#E8E4DC" stroke-width="0.70" stroke-opacity="0.2500601453242916" stroke-linecap="round" stroke-linejoin="round" />
<path d="M 632.3 933.9 L 650.0 931.8" fill="none" stroke="#E8E4DC" stroke-width="0.70" stroke-opacity="0.18162099285489694" stroke-linecap="round" stroke-linejoin="round" />
<path d="M 631.6 921.8 L 648.9 926.0" fill="none" stroke="#E8E4DC" stroke-width="0.70" stroke-opacity="0.23074126675283588" stroke-linecap="round" stroke-linejoin="round" />
<path d="M 635.4 909.7 L 650.0 919.8" fill="none" stroke="#E8E4DC" stroke-width="0.70" stroke-opacity="0.18817434725786975" stroke-linecap="round" stroke-linejoin="round" />
<path d="M 643.7 899.3 L 653.8 914.0" fill="none" stroke="#E8E4DC" stroke-width="0.70" stroke-opacity="0.24902033656659808" stroke-linecap="round" stroke-linejoin="round" />
<path d="M 655.6 892.3 L 659.8 909.6" fill="none" stroke="#E8E4DC" stroke-width="0.70" stroke-opacity="0.19698426727214302" stroke-linecap="round" stroke-linejoin="round" />
<path d="M 669.7 890.0 L 667.6 907.7" fill="none" stroke="#E8E4DC" stroke-width="0.70" stroke-opacity="0.20853682065178508" stroke-linecap="round" stroke-linejoin="round" />
<path d="M 684.3 893.0 L 676.0 908.7" fill="none" stroke="#E8E4DC" stroke-width="0.70" stroke-opacity="0.2472303880341931" stroke-linecap="round" stroke-linejoin="round" />
<path d="M 697.3 901.3 L 684.0 913.1" fill="none" stroke="#E8E4DC" stroke-width="0.70" stroke-opacity="0.22596713345669525" stroke-linecap="round" stroke-linejoin="round" />
<path d="M 706.8 914.2 L 690.1 920.5" fill="none" stroke="#E8E4DC" stroke-width="0.70" stroke-opacity="0.16581331947924907" stroke-linecap="round" stroke-linejoin="round" />
<path d="M 711.2 930.1 L 693.4 930.1" fill="none" stroke="#E8E4DC" stroke-width="0.70" stroke-opacity="0.17023092922766522" stroke-linecap="round" stroke-linejoin="round" />
<path d="M 709.6 947.1 L 692.9 940.8" fill="none" stroke="#E8E4DC" stroke-width="0.70" stroke-opacity="0.2590361731576717" stroke-linecap="round" stroke-linejoin="round" />
<path d="M 701.7 962.9 L 688.4 951.1" fill="none" stroke="#E8E4DC" stroke-width="0.70" stroke-opacity="0.15902694828551017" stroke-linecap="round" stroke-linejoin="round" />
<path d="M 688.4 975.2 L 680.1 959.4" fill="none" stroke="#E8E4DC" stroke-width="0.70" stroke-opacity="0.18729068001942514" stroke-linecap="round" stroke-linejoin="round" />
<path d="M 671.0 982.1 L 668.9 964.5" fill="none" stroke="#E8E4DC" stroke-width="0.70" stroke-opacity="0.25572501430926153" stroke-linecap="round" stroke-linejoin="round" />
<path d="M 651.7 982.4 L 656.0 965.1" fill="none" stroke="#E8E4DC" stroke-width="0.70" stroke-opacity="0.15757102791296526" stroke-linecap="round" stroke-linejoin="round" />
<path d="M 633.1 975.6 L 643.2 961.0" fill="none" stroke="#E8E4DC" stroke-width="0.70" stroke-opacity="0.17278537957894552" stroke-linecap="round" stroke-linejoin="round" />
<path d="M 617.7 962.3 L 632.4 952.2" fill="none" stroke="#E8E4DC" stroke-width="0.70" stroke-opacity="0.1781898860301566" stroke-linecap="round" stroke-linejoin="round" />
<path d="M 607.9 943.8 L 625.1 939.6" fill="none" stroke="#E8E4DC" stroke-width="0.70" stroke-opacity="0.164984640130558" stroke-linecap="round" stroke-linejoin="round" />
<path d="M 605.1 922.5 L 622.8 924.7" fill="none" stroke="#E8E4DC" stroke-width="0.70" stroke-opacity="0.20508398166676964" stroke-linecap="round" stroke-linejoin="round" />
<path d="M 610.3 901.1 L 626.1 909.5" fill="none" stroke="#E8E4DC" stroke-width="0.70" stroke-opacity="0.21761354441228217" stroke-linecap="round" stroke-linejoin="round" />
<path d="M 623.1 882.5 L 634.9 895.9" fill="none" stroke="#E8E4DC" stroke-width="0.70" stroke-opacity="0.18910544101210974" stroke-linecap="round" stroke-linejoin="round" />
<path d="M 642.1 869.4 L 648.4 886.1" fill="none" stroke="#E8E4DC" stroke-width="0.70" stroke-opacity="0.16729956471616433" stroke-linecap="round" stroke-linejoin="round" />
<path d="M 665.1 863.8 L 665.0 881.6" fill="none" stroke="#E8E4DC" stroke-width="0.70" stroke-opacity="0.2403394320710196" stroke-linecap="round" stroke-linejoin="round" />
<path d="M 689.1 866.8 L 682.7 883.4" fill="none" stroke="#E8E4DC" stroke-width="0.70" stroke-opacity="0.23966502368611992" stroke-linecap="round" stroke-linejoin="round" />
<path d="M 711.0 878.4 L 699.1 891.6" fill="none" stroke="#E8E4DC" stroke-width="0.70" stroke-opacity="0.21445838976572743" stroke-linecap="round" stroke-linejoin="round" />
<path d="M 727.6 897.4 L 711.8 905.6" fill="none" stroke="#E8E4DC" stroke-width="0.70" stroke-opacity="0.1703251792156245" stroke-linecap="round" stroke-linejoin="round" />
<path d="M 736.6 921.6 L 718.9 923.7" fill="none" stroke="#E8E4DC" stroke-width="0.70" stroke-opacity="0.21235877627373362" stroke-linecap="round" stroke-linejoin="round" />
<path d="M 736.4 948.0 L 719.1 943.7" fill="none" stroke="#E8E4DC" stroke-width="0.70" stroke-opacity="0.22147048972921732" stroke-linecap="round" stroke-linejoin="round" />
<path d="M 726.6 973.1 L 712.0 962.9" fill="none" stroke="#E8E4DC" stroke-width="0.70" stroke-opacity="0.20054240234043877" stroke-linecap="round" stroke-linejoin="round" />
<path d="M 708.1 993.5 L 698.1 978.8" fill="none" stroke="#E8E4DC" stroke-width="0.70" stroke-opacity="0.24584179230903544" stroke-linecap="round" stroke-linejoin="round" />
<path d="M 683.1 1006.2 L 679.0 988.9" fill="none" stroke="#E8E4DC" stroke-width="0.70" stroke-opacity="0.19656472153980384" stroke-linecap="round" stroke-linejoin="round" />
<path d="M 654.7 1009.3 L 657.0 991.6" fill="none" stroke="#E8E4DC" stroke-width="0.70" stroke-opacity="0.20913225552731884" stroke-linecap="round" stroke-linejoin="round" />
<path d="M 626.5 1001.9 L 634.9 986.2" fill="none" stroke="#E8E4DC" stroke-width="0.70" stroke-opacity="0.1678709095727277" stroke-linecap="round" stroke-linejoin="round" />
<path d="M 602.4 984.7 L 615.8 972.9" fill="none" stroke="#E8E4DC" stroke-width="0.70" stroke-opacity="0.2146092831534327" stroke-linecap="round" stroke-linejoin="round" />
<path d="M 585.6 959.5 L 602.3 953.3" fill="none" stroke="#E8E4DC" stroke-width="0.70" stroke-opacity="0.2357105965553771" stroke-linecap="round" stroke-linejoin="round" />
<path d="M 578.8 929.5 L 596.6 929.6" fill="none" stroke="#E8E4DC" stroke-width="0.70" stroke-opacity="0.2320508654787705" stroke-linecap="round" stroke-linejoin="round" />
<path d="M 583.1 898.4 L 599.7 904.8" fill="none" stroke="#E8E4DC" stroke-width="0.70" stroke-opacity="0.18272600683526824" stroke-linecap="round" stroke-linejoin="round" />
<path d="M 598.5 870.5 L 611.8 882.4" fill="none" stroke="#E8E4DC" stroke-width="0.70" stroke-opacity="0.25915408709557847" stroke-linecap="round" stroke-linejoin="round" />
<path d="M 623.2 849.5 L 631.4 865.3" fill="none" stroke="#E8E4DC" stroke-width="0.70" stroke-opacity="0.23087315128505712" stroke-linecap="round" stroke-linejoin="round" />
<path d="M 654.3 838.5 L 656.3 856.2" fill="none" stroke="#E8E4DC" stroke-width="0.70" stroke-opacity="0.20007025183183752" stroke-linecap="round" stroke-linejoin="round" />
<path d="M 687.8 839.2 L 683.5 856.5" fill="none" stroke="#E8E4DC" stroke-width="0.70" stroke-opacity="0.19915048667502921" stroke-linecap="round" stroke-linejoin="round" />
<path d="M 719.4 852.1 L 709.2 866.6" fill="none" stroke="#E8E4DC" stroke-width="0.70" stroke-opacity="0.23704983699788432" stroke-linecap="round" stroke-linejoin="round" />
<path d="M 744.8 875.7 L 730.1 885.7" fill="none" stroke="#E8E4DC" stroke-width="0.70" stroke-opacity="0.17427096395939756" stroke-linecap="round" stroke-linejoin="round" />
<path d="M 760.3 907.2 L 743.0 911.3" fill="none" stroke="#E8E4DC" stroke-width="0.70" stroke-opacity="0.22252125091246927" stroke-linecap="round" stroke-linejoin="round" />
<path d="M 763.7 942.8 L 746.1 940.5" fill="none" stroke="#E8E4DC" stroke-width="0.70" stroke-opacity="0.23075930582066448" stroke-linecap="round" stroke-linejoin="round" />
<path d="M 754.1 977.8 L 738.4 969.4" fill="none" stroke="#E8E4DC" stroke-width="0.70" stroke-opacity="0.20969936209158024" stroke-linecap="round" stroke-linejoin="round" />
<path d="M 732.4 1007.5 L 720.7 994.1" fill="none" stroke="#E8E4DC" stroke-width="0.70" stroke-opacity="0.24681263441036747" stroke-linecap="round" stroke-linejoin="round" />
<path d="M 701.0 1027.8 L 694.8 1011.1" fill="none" stroke="#E8E4DC" stroke-width="0.70" stroke-opacity="0.20473814191565007" stroke-linecap="round" stroke-linejoin="round" />
<path d="M 692.8 1018.1 L 690.8 1018.9 L 688.8 1019.6 L 686.7 1020.4 L 684.5 1021.1 L 682.3 1021.9 L 680.0 1022.7 L 677.7 1023.5 L 675.2 1024.2 L 672.7 1025.0 L 670.2 1025.9 L 667.6 1026.7 L 664.9 1027.5 L 662.2 1028.3 L 659.4 1029.2 L 656.6 1030.0 L 653.7 1030.9 L 650.7 1031.7 L 647.7 1032.6 L 644.6 1033.4 L 641.5 1034.3 L 638.4 1035.2 L 635.1 1036.1 L 631.9 1037.0 L 628.5 1037.9 L 625.2 1038.8 L 621.7 1039.7 L 618.3 1040.6 L 614.7 1041.5 L 611.2 1042.4 L 607.6 1043.4 L 603.9 1044.3 L 600.2 1045.2 L 596.5 1046.2 L 592.7 1047.1 L 588.8 1048.1 L 584.9 1049.0 L 581.0 1050.0 L 577.1 1050.9 L 573.1 1051.9 L 569.0 1052.8 L 565.0 1053.8 L 560.8 1054.8 L 556.7 1055.7 L 552.5 1056.7 L 548.3 1057.7 L 544.0 1058.6 L 539.7 1059.6 L 535.4 1060.6 L 531.0 1061.6 L 526.6 1062.6 L 522.2 1063.5 L 517.7 1064.5 L 513.2 1065.5 L 508.7 1066.5 L 504.2 1067.5 L 499.6 1068.5 L 495.0 1069.5 L 490.4 1070.5 L 485.7 1071.4 L 481.0 1072.4 L 476.3 1073.4 L 471.6 1074.4 L 466.8 1075.4 L 462.0 1076.4 L 457.2 1077.4 L 452.4 1078.4 L 447.5 1079.3 L 442.7 1080.3 L 437.8 1081.3 L 432.9 1082.3 L 428.0 1083.3 L 423.0 1084.3 L 418.0 1085.2 L 413.1 1086.2 L 408.1 1087.2 L 403.1 1088.2 L 398.0 1089.1 L 393.0 1090.1 L 388.0 1091.1 L 382.9 1092.0 L 377.8 1093.0 L 372.7 1094.0 L 367.6 1094.9 L 362.5 1095.9 L 357.4 1096.8 L 352.3 1097.8 L 347.2 1098.7 L 342.0 1099.6 L 336.9 1100.6 L 331.7 1101.5 L 326.6 1102.4 L 321.4 1103.3 L 316.2 1104.3 L 311.1 1105.2 L 305.9 1106.1 L 300.7 1107.0 L 295.5 1107.9 L 290.4 1108.8 L 285.2 1109.7 L 280.0 1110.5 L 274.8 1111.4 L 269.7 1112.3 L 264.5 1113.2 L 259.3 1114.0 L 254.2 1114.9 L 249.0 1115.7 L 243.9 1116.6 L 238.7 1117.4 L 233.6 1118.2 L 228.5 1119.1 L 223.3 1119.9 L 218.2 1120.7 L 213.1 1121.5 L 208.0 1122.3 L 202.9 1123.1 L 197.9 1123.9 L 192.8 1124.6 L 187.8 1125.4 L 182.7 1126.2" fill="none" stroke="#E8E4DC" stroke-width="1.60" stroke-opacity="0.85" stroke-linecap="round" stroke-linejoin="round" />
<path d="M 702.6 1044.4 L 700.5 1045.2 L 698.3 1046.0 L 696.0 1046.8 L 693.7 1047.6 L 691.3 1048.4 L 688.9 1049.2 L 686.4 1050.0 L 683.9 1050.9 L 681.3 1051.7 L 678.6 1052.6 L 675.9 1053.4 L 673.1 1054.3 L 670.3 1055.1 L 667.4 1056.0 L 664.5 1056.9 L 661.5 1057.7 L 658.5 1058.6 L 655.4 1059.5 L 652.3 1060.4 L 649.1 1061.3 L 645.8 1062.2 L 642.5 1063.1 L 639.2 1064.0 L 635.8 1064.9 L 632.4 1065.8 L 628.9 1066.8 L 625.3 1067.7 L 621.8 1068.6 L 618.2 1069.6 L 614.5 1070.5 L 610.8 1071.4 L 607.0 1072.4 L 603.2 1073.3 L 599.4 1074.3 L 595.5 1075.2 L 591.6 1076.2 L 587.6 1077.2 L 583.6 1078.1 L 579.6 1079.1 L 575.5 1080.1 L 571.4 1081.0 L 567.2 1082.0 L 563.0 1083.0 L 558.8 1084.0 L 554.5 1085.0 L 550.2 1085.9 L 545.9 1086.9 L 541.5 1087.9 L 537.1 1088.9 L 532.7 1089.9 L 528.2 1090.9 L 523.8 1091.9 L 519.2 1092.9 L 514.7 1093.9 L 510.1 1094.9 L 505.5 1095.8 L 500.9 1096.8 L 496.2 1097.8 L 491.5 1098.8 L 486.8 1099.8 L 482.0 1100.8 L 477.3 1101.8 L 472.5 1102.8 L 467.7 1103.8 L 462.8 1104.8 L 458.0 1105.8 L 453.1 1106.8 L 448.2 1107.8 L 443.3 1108.8 L 438.4 1109.8 L 433.4 1110.7 L 428.4 1111.7 L 423.5 1112.7 L 418.4 1113.7 L 413.4 1114.7 L 408.4 1115.7 L 403.3 1116.6 L 398.3 1117.6 L 393.2 1118.6 L 388.1 1119.5 L 383.0 1120.5 L 377.9 1121.5 L 372.8 1122.4 L 367.6 1123.4 L 362.5 1124.3 L 357.3 1125.3 L 352.2 1126.2 L 347.0 1127.2 L 341.9 1128.1 L 336.7 1129.1 L 331.5 1130.0 L 326.3 1130.9 L 321.1 1131.8 L 315.9 1132.7 L 310.7 1133.7 L 305.5 1134.6 L 300.3 1135.5 L 295.1 1136.4 L 289.9 1137.3 L 284.7 1138.2 L 279.5 1139.0 L 274.3 1139.9 L 269.1 1140.8 L 263.9 1141.6 L 258.7 1142.5 L 253.5 1143.4 L 248.4 1144.2 L 243.2 1145.0 L 238.0 1145.9 L 232.9 1146.7 L 227.7 1147.5 L 222.6 1148.3 L 217.4 1149.2 L 212.3 1150.0 L 207.2 1150.7 L 202.1 1151.5 L 197.0 1152.3 L 191.9 1153.1 L 186.9 1153.8" fill="none" stroke="#E8E4DC" stroke-width="1.20" stroke-opacity="0.7" stroke-linecap="round" stroke-linejoin="round" />
<path d="M 182.7 1126.2 L 186.9 1153.8" fill="none" stroke="#E8E4DC" stroke-width="1.60" stroke-opacity="0.85" stroke-linecap="round" stroke-linejoin="round" />
<path d="M 680.0 1022.7 L 682.0 1028.6" fill="none" stroke="#E8E4DC" stroke-width="0.70" stroke-opacity="0.75" stroke-linecap="round" stroke-linejoin="round" />
<path d="M 664.9 1027.5 L 666.8 1033.5" fill="none" stroke="#E8E4DC" stroke-width="0.70" stroke-opacity="0.75" stroke-linecap="round" stroke-linejoin="round" />
<path d="M 647.7 1032.6 L 649.4 1038.6" fill="none" stroke="#E8E4DC" stroke-width="0.70" stroke-opacity="0.75" stroke-linecap="round" stroke-linejoin="round" />
<path d="M 628.5 1037.9 L 630.2 1044.0" fill="none" stroke="#E8E4DC" stroke-width="0.70" stroke-opacity="0.75" stroke-linecap="round" stroke-linejoin="round" />
<path d="M 607.6 1043.4 L 610.7 1055.6" fill="none" stroke="#E8E4DC" stroke-width="1.00" stroke-opacity="0.75" stroke-linecap="round" stroke-linejoin="round" />
<path d="M 584.9 1049.0 L 586.4 1055.1" fill="none" stroke="#E8E4DC" stroke-width="0.70" stroke-opacity="0.75" stroke-linecap="round" stroke-linejoin="round" />
<path d="M 560.8 1054.8 L 562.3 1060.9" fill="none" stroke="#E8E4DC" stroke-width="0.70" stroke-opacity="0.75" stroke-linecap="round" stroke-linejoin="round" />
<path d="M 535.4 1060.6 L 536.8 1066.7" fill="none" stroke="#E8E4DC" stroke-width="0.70" stroke-opacity="0.75" stroke-linecap="round" stroke-linejoin="round" />
<path d="M 508.7 1066.5 L 510.1 1072.7" fill="none" stroke="#E8E4DC" stroke-width="0.70" stroke-opacity="0.75" stroke-linecap="round" stroke-linejoin="round" />
<path d="M 481.0 1072.4 L 483.6 1084.8" fill="none" stroke="#E8E4DC" stroke-width="1.00" stroke-opacity="0.75" stroke-linecap="round" stroke-linejoin="round" />
<path d="M 452.4 1078.4 L 453.7 1084.5" fill="none" stroke="#E8E4DC" stroke-width="0.70" stroke-opacity="0.75" stroke-linecap="round" stroke-linejoin="round" />
<path d="M 423.0 1084.3 L 424.2 1090.4" fill="none" stroke="#E8E4DC" stroke-width="0.70" stroke-opacity="0.75" stroke-linecap="round" stroke-linejoin="round" />
<path d="M 393.0 1090.1 L 394.2 1096.3" fill="none" stroke="#E8E4DC" stroke-width="0.70" stroke-opacity="0.75" stroke-linecap="round" stroke-linejoin="round" />
<path d="M 362.5 1095.9 L 363.7 1102.1" fill="none" stroke="#E8E4DC" stroke-width="0.70" stroke-opacity="0.75" stroke-linecap="round" stroke-linejoin="round" />
<path d="M 331.7 1101.5 L 333.9 1113.9" fill="none" stroke="#E8E4DC" stroke-width="1.00" stroke-opacity="0.75" stroke-linecap="round" stroke-linejoin="round" />
<path d="M 300.7 1107.0 L 301.8 1113.2" fill="none" stroke="#E8E4DC" stroke-width="0.70" stroke-opacity="0.75" stroke-linecap="round" stroke-linejoin="round" />
<path d="M 269.7 1112.3 L 270.7 1118.5" fill="none" stroke="#E8E4DC" stroke-width="0.70" stroke-opacity="0.75" stroke-linecap="round" stroke-linejoin="round" />
<path d="M 238.7 1117.4 L 239.7 1123.6" fill="none" stroke="#E8E4DC" stroke-width="0.70" stroke-opacity="0.75" stroke-linecap="round" stroke-linejoin="round" />
<path d="M 208.0 1122.3 L 209.0 1128.5" fill="none" stroke="#E8E4DC" stroke-width="0.70" stroke-opacity="0.75" stroke-linecap="round" stroke-linejoin="round" />
<path d="M 184.8 1280.0 L 334.8 1280.0" fill="none" stroke="#A8A39A" stroke-width="0.70" stroke-opacity="0.3" stroke-linecap="round" stroke-linejoin="round" />
<path d="M 184.8 1275.0 L 184.8 1285.0" fill="none" stroke="#A8A39A" stroke-width="0.70" stroke-opacity="0.3" stroke-linecap="round" stroke-linejoin="round" />
<path d="M 214.8 1275.0 L 214.8 1285.0" fill="none" stroke="#A8A39A" stroke-width="0.70" stroke-opacity="0.3" stroke-linecap="round" stroke-linejoin="round" />
<path d="M 244.8 1275.0 L 244.8 1285.0" fill="none" stroke="#A8A39A" stroke-width="0.70" stroke-opacity="0.3" stroke-linecap="round" stroke-linejoin="round" />
<path d="M 274.8 1275.0 L 274.8 1285.0" fill="none" stroke="#A8A39A" stroke-width="0.70" stroke-opacity="0.3" stroke-linecap="round" stroke-linejoin="round" />
<path d="M 304.8 1275.0 L 304.8 1285.0" fill="none" stroke="#A8A39A" stroke-width="0.70" stroke-opacity="0.3" stroke-linecap="round" stroke-linejoin="round" />
<path d="M 334.8 1275.0 L 334.8 1285.0" fill="none" stroke="#A8A39A" stroke-width="0.70" stroke-opacity="0.3" stroke-linecap="round" stroke-linejoin="round" />
  </g>
</svg>