<svg xmlns="http://www.w3.org/2000/svg" width="1080" height="1080" viewBox="0 0 1080 1080">
  <defs><linearGradient id="g" x1="0" y1="0" x2="0" y2="1">
    <stop offset="0" stop-color="#9A2434"/><stop offset="1" stop-color="#7E1B2A"/></linearGradient></defs>
  <rect width="1080" height="1080" fill="url(#g)"/>
  <circle cx="540" cy="540" r="466" fill="none" stroke="#F4F2EE" stroke-width="3"/>
  <circle cx="540" cy="540" r="446" fill="none" stroke="#F4F2EE" stroke-width="3"/>
  <g transform="translate(365.4 290.0) scale(0.88652)">
    <path transform="translate(-11.918 552.619) scale(0.721649 -0.721649)" fill="#F4F2EE" d="M298 -13Q237 -13 193.0 4.0Q149 21 112 48L65 0H35V210H66Q78 161 105.5 118.0Q133 75 180.0 48.5Q227 22 295 22Q351 22 388.5 40.0Q426 58 445.5 89.5Q465 121 465 159Q465 198 447.0 222.0Q429 246 400.5 259.5Q372 273 339.5 281.0Q307 289 278 296Q208 314 155.0 343.5Q102 373 72.5 420.0Q43 467 43 537Q43 614 76.0 664.0Q109 714 163.0 738.5Q217 763 278 763Q323 763 358.5 750.0Q394 737 434 712L473 754H504V550H474Q445 645 396.0 686.5Q347 728 276 728Q233 728 197.5 714.5Q162 701 141.0 676.0Q120 651 120 617Q120 585 138.0 564.5Q156 544 185.0 532.0Q214 520 247.0 512.0Q280 504 310 497Q386 479 438.0 447.5Q490 416 517.0 365.0Q544 314 544 237Q544 119 480.5 53.0Q417 -13 298 -13Z"/>
  </g>
</svg>